<svg width="87" height="41" viewBox="0 0 87 41" fill="none" xmlns="http://www.w3.org/2000/svg">
<g clip-path="url(#clip0_65_484)">
<path fill-rule="evenodd" clip-rule="evenodd" d="M19.9473 0.954023L66.6667 0.833496C76.806 0.833496 86.0264 10.5209 86.0264 20.7205C86.0264 30.8599 77.2128 40.6678 66.0188 40.6678C54.8249 40.6678 48.6328 34.6414 47.1262 26.0086L38.9454 25.7224C37.4388 34.3552 29.5593 40.8486 19.9322 40.8486C10.3202 40.8335 0 31.6734 0 21.5341C0 11.3344 9.79284 0.954023 19.9473 0.954023Z" fill="url(#paint0_linear_65_484)"/>
<path fill-rule="evenodd" clip-rule="evenodd" d="M16.7533 11.6206H23.081V17.9332H29.4539V24.2609H23.081V30.5735H16.7533V24.2609H10.4407V17.9332H16.7533V11.6206Z" fill="white"/>
<path fill-rule="evenodd" clip-rule="evenodd" d="M72.4671 17.9333C70.7345 17.9333 69.3333 19.3194 69.3333 21.1273C69.3333 22.8599 70.7194 24.261 72.4671 24.261C74.1996 24.261 75.661 22.875 75.661 21.1273C75.661 19.3345 74.2147 17.9333 72.4671 17.9333Z" fill="white"/>
<path fill-rule="evenodd" clip-rule="evenodd" d="M66.1544 11.6206C64.4218 11.6206 62.9604 13.0067 62.9604 14.7543C62.9604 16.5472 64.4068 17.9483 66.1544 17.9483C67.887 17.9483 69.3484 16.5622 69.3484 14.7543C69.3333 13.0067 67.887 11.6206 66.1544 11.6206Z" fill="white"/>
<path fill-rule="evenodd" clip-rule="evenodd" d="M59.8267 17.9333C58.0942 17.9333 56.6328 19.3194 56.6328 21.1273C56.6328 22.8599 58.0791 24.261 59.8267 24.261C61.5593 24.261 62.9605 22.875 62.9605 21.1273C62.9605 19.3345 61.5744 17.9333 59.8267 17.9333Z" fill="white"/>
<path fill-rule="evenodd" clip-rule="evenodd" d="M66.1544 24.261C64.4218 24.261 62.9604 25.7073 62.9604 27.455C62.9604 29.2026 64.4068 30.5887 66.1544 30.5887C67.887 30.5887 69.3484 29.2026 69.3484 27.455C69.3333 25.7073 67.887 24.261 66.1544 24.261Z" fill="white"/>
</g>
<defs>
<linearGradient id="paint0_linear_65_484" x1="11.2989" y1="20.8357" x2="75.6531" y2="20.8357" gradientUnits="userSpaceOnUse">
<stop stop-color="#FF42A5"/>
<stop offset="1" stop-color="#FF42A5"/>
</linearGradient>
<clipPath id="clip0_65_484">
<rect width="86.0414" height="40" fill="white" transform="translate(0 0.833496)"/>
</clipPath>
</defs>
</svg>
