<svg width="458" height="41" viewBox="0 0 458 41" fill="none" xmlns="http://www.w3.org/2000/svg">
<g clip-path="url(#clip0_65_578)">
<path d="M40 8.431C38.5125 9.0835 36.9275 9.516 35.275 9.726C36.975 8.711 38.2725 7.116 38.8825 5.1935C37.2975 6.1385 35.5475 6.806 33.6825 7.1785C32.1775 5.576 30.0325 4.5835 27.6925 4.5835C23.1525 4.5835 19.4975 8.2685 19.4975 12.786C19.4975 13.436 19.5525 14.061 19.6875 14.656C12.87 14.3235 6.8375 11.056 2.785 6.0785C2.0775 7.306 1.6625 8.711 1.6625 10.2235C1.6625 13.0635 3.125 15.581 5.305 17.0385C3.9875 17.0135 2.695 16.631 1.6 16.0285C1.6 16.0535 1.6 16.086 1.6 16.1185C1.6 20.1035 4.4425 23.4135 8.17 24.176C7.5025 24.3585 6.775 24.446 6.02 24.446C5.495 24.446 4.965 24.416 4.4675 24.306C5.53 27.5535 8.545 29.941 12.13 30.0185C9.34 32.201 5.7975 33.516 1.9625 33.516C1.29 33.516 0.645 33.486 0 33.4035C3.6325 35.746 7.9375 37.0835 12.58 37.0835C27.67 37.0835 35.92 24.5835 35.92 13.7485C35.92 13.386 35.9075 13.036 35.89 12.6885C37.5175 11.5335 38.885 10.091 40 8.431Z" fill="white"/>
</g>
<g clip-path="url(#clip1_65_578)">
<path d="M120 20.8335C120 30.8163 112.686 39.0905 103.125 40.5905V26.6147H107.785L108.672 20.8335H103.125V17.0819C103.125 15.4999 103.9 13.9585 106.384 13.9585H108.906V9.03662C108.906 9.03662 106.617 8.646 104.429 8.646C99.8609 8.646 96.875 11.4147 96.875 16.4272V20.8335H91.7969V26.6147H96.875V40.5905C87.3141 39.0905 80 30.8163 80 20.8335C80 9.78818 88.9547 0.833496 100 0.833496C111.045 0.833496 120 9.78818 120 20.8335Z" fill="white"/>
<path d="M107.785 26.6147L108.672 20.8335H103.125V17.0819C103.125 15.5002 103.9 13.9585 106.384 13.9585H108.906V9.03662C108.906 9.03662 106.618 8.646 104.429 8.646C99.8609 8.646 96.875 11.4147 96.875 16.4272V20.8335H91.7969V26.6147H96.875V40.5905C97.8933 40.7502 98.9369 40.8335 100 40.8335C101.063 40.8335 102.107 40.7502 103.125 40.5905V26.6147H107.785Z" fill="#1877F2"/>
</g>
<path d="M215.953 7.09249C215.294 4.64512 213.364 2.71599 210.917 2.05696C206.447 0.833496 188.564 0.833496 188.564 0.833496C188.564 0.833496 170.682 0.833496 166.211 2.01033C163.812 2.66891 161.835 4.64555 161.176 7.09249C160 11.5627 160 20.8335 160 20.8335C160 20.8335 160 30.1509 161.176 34.5745C161.835 37.0214 163.765 38.951 166.212 39.61C170.729 40.8335 188.565 40.8335 188.565 40.8335C188.565 40.8335 206.447 40.8335 210.917 39.6567C213.365 38.9981 215.294 37.0685 215.953 34.6216C217.129 30.1509 217.129 20.8806 217.129 20.8806C217.129 20.8806 217.176 11.5627 215.953 7.09249Z" fill="white"/>
<path d="M182.871 29.3982L197.741 20.8335L182.871 12.2688V29.3982Z" fill="#FF0000"/>
<path d="M293.122 36.8336V36.8324H293.13V25.0964C293.13 19.3552 291.894 14.9324 285.182 14.9324C281.955 14.9324 279.79 16.7032 278.906 18.3816H278.812V15.4684H272.448V36.8324H279.075V26.2536C279.075 23.4684 279.603 20.7748 283.052 20.7748C286.451 20.7748 286.502 23.9536 286.502 26.432V36.8336H293.122Z" fill="white"/>
<path d="M261.658 15.4695H268.292V36.8335H261.658V15.4695Z" fill="white"/>
<path d="M264.972 4.8335C262.851 4.8335 261.13 6.5547 261.13 8.6763C261.13 10.7979 262.851 12.5551 264.972 12.5551C267.094 12.5551 268.815 10.7979 268.815 8.6763C268.814 6.5547 267.092 4.8335 264.972 4.8335Z" fill="white"/>
<g clip-path="url(#clip2_65_578)">
<path d="M377.09 12.5936C376.997 10.4683 376.653 9.00709 376.161 7.74097C375.653 6.39702 374.871 5.19378 373.848 4.19353C372.847 3.1777 371.636 2.38837 370.308 1.88839C369.034 1.39604 367.581 1.05235 365.456 0.958643C363.314 0.856999 362.635 0.833496 357.204 0.833496C351.773 0.833496 351.093 0.856999 348.96 0.950706C346.835 1.04441 345.373 1.38841 344.108 1.88045C342.763 2.38837 341.56 3.16977 340.56 4.19353C339.544 5.19378 338.755 6.40496 338.255 7.73334C337.762 9.00709 337.419 10.4603 337.325 12.5857C337.223 14.7269 337.2 15.4067 337.2 20.8374C337.2 26.2682 337.223 26.9479 337.317 29.0812C337.411 31.2066 337.755 32.6677 338.247 33.9338C338.755 35.2778 339.544 36.481 340.56 37.4813C341.56 38.4971 342.771 39.2864 344.1 39.7864C345.373 40.2788 346.827 40.6225 348.952 40.7162C351.085 40.8102 351.765 40.8334 357.196 40.8334C362.627 40.8334 363.307 40.8102 365.44 40.7162C367.565 40.6225 369.026 40.2788 370.292 39.7864C372.98 38.7471 375.106 36.6217 376.145 33.9338C376.637 32.6601 376.981 31.2066 377.075 29.0812C377.169 26.9479 377.192 26.2682 377.192 20.8374C377.192 15.4067 377.184 14.7269 377.09 12.5936ZM373.488 28.9249C373.402 30.8784 373.074 31.9333 372.801 32.6366C372.129 34.3792 370.746 35.7622 369.003 36.4343C368.3 36.7078 367.237 37.0359 365.291 37.1217C363.182 37.2157 362.549 37.2389 357.212 37.2389C351.875 37.2389 351.234 37.2157 349.132 37.1217C347.178 37.0359 346.123 36.7078 345.42 36.4343C344.553 36.1138 343.764 35.6059 343.123 34.9417C342.459 34.2931 341.951 33.5117 341.63 32.6445C341.357 31.9413 341.029 30.8784 340.943 28.9329C340.849 26.8231 340.826 26.19 340.826 20.853C340.826 15.5159 340.849 14.8752 340.943 12.7734C341.029 10.8199 341.357 9.76499 341.63 9.06173C341.951 8.19425 342.459 7.40521 343.131 6.76422C343.779 6.10003 344.561 5.59212 345.428 5.27192C346.131 4.99843 347.194 4.6703 349.14 4.58423C351.25 4.49052 351.883 4.46702 357.219 4.46702C362.564 4.46702 363.197 4.49052 365.299 4.58423C367.253 4.6703 368.308 4.99843 369.011 5.27192C369.878 5.59212 370.667 6.10003 371.308 6.76422C371.972 7.41284 372.48 8.19425 372.801 9.06173C373.074 9.76499 373.402 10.8275 373.488 12.7734C373.582 14.8832 373.606 15.5159 373.606 20.853C373.606 26.19 373.582 26.8151 373.488 28.9249Z" fill="white"/>
<path d="M357.204 10.562C351.531 10.562 346.928 15.1644 346.928 20.8375C346.928 26.5106 351.531 31.1129 357.204 31.1129C362.877 31.1129 367.479 26.5106 367.479 20.8375C367.479 15.1644 362.877 10.562 357.204 10.562ZM357.204 27.5029C353.524 27.5029 350.538 24.518 350.538 20.8375C350.538 17.1569 353.524 14.172 357.204 14.172C360.884 14.172 363.869 17.1569 363.869 20.8375C363.869 24.518 360.884 27.5029 357.204 27.5029Z" fill="white"/>
<path d="M370.285 10.1557C370.285 11.4804 369.211 12.5545 367.885 12.5545C366.561 12.5545 365.487 11.4804 365.487 10.1557C365.487 8.83065 366.561 7.75684 367.885 7.75684C369.211 7.75684 370.285 8.83065 370.285 10.1557Z" fill="white"/>
</g>
<g clip-path="url(#clip3_65_578)">
<path d="M444.628 0.833496C442.495 0.980995 440.003 2.34599 438.55 4.12348C437.225 5.73597 436.135 8.13095 436.56 10.4584C438.89 10.5309 441.298 9.13345 442.693 7.32596C443.998 5.64347 444.985 3.26348 444.628 0.833496Z" fill="white"/>
<path d="M453.055 14.2535C451.008 11.686 448.13 10.196 445.413 10.196C441.825 10.196 440.308 11.9135 437.815 11.9135C435.245 11.9135 433.293 10.201 430.19 10.201C427.143 10.201 423.898 12.0635 421.841 15.2485C418.948 19.7335 419.443 28.1659 424.131 35.3484C425.808 37.9184 428.048 40.8084 430.978 40.8334C433.585 40.8584 434.32 39.1609 437.853 39.1434C441.385 39.1234 442.055 40.8559 444.658 40.8284C447.59 40.8059 449.953 37.6034 451.63 35.0334C452.833 33.1909 453.28 32.2634 454.213 30.1834C447.43 27.6009 446.343 17.956 453.055 14.2535Z" fill="white"/>
</g>
<defs>
<clipPath id="clip0_65_578">
<rect width="40" height="40" fill="white" transform="translate(0 0.833496)"/>
</clipPath>
<clipPath id="clip1_65_578">
<rect width="40" height="40" fill="white" transform="translate(80 0.833496)"/>
</clipPath>
<clipPath id="clip2_65_578">
<rect width="40" height="40" fill="white" transform="translate(337.13 0.833496)"/>
</clipPath>
<clipPath id="clip3_65_578">
<rect width="40" height="40" fill="white" transform="translate(417.13 0.833496)"/>
</clipPath>
</defs>
</svg>
