<svg width="87" height="40" viewBox="0 0 87 40" fill="none" xmlns="http://www.w3.org/2000/svg">
<g clip-path="url(#clip0_61_183)">
<path fill-rule="evenodd" clip-rule="evenodd" d="M19.9473 0.120527L66.6667 0C76.806 0 86.0264 9.68738 86.0264 19.887C86.0264 30.0264 77.2128 39.8343 66.0188 39.8343C54.8249 39.8343 48.6328 33.8079 47.1262 25.1751L38.9454 24.8889C37.4388 33.5217 29.5593 40.0151 19.9322 40.0151C10.3202 40 0 30.8399 0 20.7006C0 10.5009 9.79284 0.120527 19.9473 0.120527Z" fill="url(#paint0_linear_61_183)"/>
<path fill-rule="evenodd" clip-rule="evenodd" d="M16.7533 10.7871H23.081V17.0997H29.4539V23.4274H23.081V29.74H16.7533V23.4274H10.4407V17.0997H16.7533V10.7871Z" fill="white"/>
<path fill-rule="evenodd" clip-rule="evenodd" d="M72.4671 17.0999C70.7345 17.0999 69.3334 18.4859 69.3334 20.2938C69.3334 22.0264 70.7194 23.4275 72.4671 23.4275C74.1997 23.4275 75.6611 22.0415 75.6611 20.2938C75.6611 18.501 74.2147 17.0999 72.4671 17.0999Z" fill="white"/>
<path fill-rule="evenodd" clip-rule="evenodd" d="M66.1544 10.7871C64.4218 10.7871 62.9604 12.1732 62.9604 13.9208C62.9604 15.7137 64.4068 17.1148 66.1544 17.1148C67.887 17.1148 69.3484 15.7287 69.3484 13.9208C69.3333 12.1732 67.887 10.7871 66.1544 10.7871Z" fill="white"/>
<path fill-rule="evenodd" clip-rule="evenodd" d="M59.8267 17.0999C58.0941 17.0999 56.6328 18.4859 56.6328 20.2938C56.6328 22.0264 58.0791 23.4275 59.8267 23.4275C61.5593 23.4275 62.9604 22.0415 62.9604 20.2938C62.9604 18.501 61.5744 17.0999 59.8267 17.0999Z" fill="white"/>
<path fill-rule="evenodd" clip-rule="evenodd" d="M66.1544 23.4275C64.4218 23.4275 62.9604 24.8738 62.9604 26.6215C62.9604 28.3691 64.4068 29.7552 66.1544 29.7552C67.887 29.7552 69.3484 28.3691 69.3484 26.6215C69.3333 24.8738 67.887 23.4275 66.1544 23.4275Z" fill="white"/>
</g>
<defs>
<linearGradient id="paint0_linear_61_183" x1="11.2989" y1="20.0022" x2="75.6531" y2="20.0022" gradientUnits="userSpaceOnUse">
<stop stop-color="#FF42A5"/>
<stop offset="1" stop-color="#FF42A5"/>
</linearGradient>
<clipPath id="clip0_61_183">
<rect width="86.0414" height="40" fill="white"/>
</clipPath>
</defs>
</svg>
