<svg width="74" height="24" viewBox="0 0 74 24" fill="none" xmlns="http://www.w3.org/2000/svg">
<path d="M58.4522 12.4407C56.5491 12.4407 55.0116 13.9782 55.0397 15.8626C55.0584 17.072 55.7241 18.122 56.7037 18.7079C56.3709 18.197 56.1741 17.5923 56.1647 16.9407C56.1366 15.0563 57.6741 13.5188 59.5772 13.5188C59.9522 13.5188 60.3131 13.5798 60.6506 13.6876V9.91416C60.2991 9.8626 59.9381 9.83447 59.5772 9.83447C59.5584 9.83447 59.5444 9.83447 59.5256 9.83447V12.6095C59.1881 12.5017 58.8272 12.4407 58.4522 12.4407Z" fill="#F00044"/>
<path d="M66.6787 1.125H66.6506H65.6756C65.9568 2.53594 66.749 3.76406 67.8553 4.59844C67.1287 3.6375 66.6881 2.4375 66.6787 1.125Z" fill="#F00044"/>
<path d="M72.4162 6.86729C72.0459 6.86729 71.6897 6.82979 71.3381 6.76416V9.46885C70.0631 9.46885 68.8256 9.22041 67.6631 8.72354C66.9131 8.40479 66.2147 7.99697 65.5725 7.50479L65.5912 15.8438C65.5819 17.7188 64.8412 19.4767 63.5006 20.8032C62.4084 21.8813 61.0256 22.5704 59.5256 22.7907C59.174 22.8423 58.8131 22.8704 58.4522 22.8704C56.849 22.8704 55.3209 22.3501 54.0787 21.3892C54.2194 21.5579 54.3694 21.722 54.5334 21.8813C55.8834 23.2126 57.674 23.9485 59.5819 23.9485C59.9428 23.9485 60.3037 23.9204 60.6553 23.8688C62.1553 23.6485 63.5381 22.9595 64.6303 21.8813C65.9709 20.5548 66.7115 18.797 66.7209 16.922L66.6506 8.58291C67.2881 9.0751 67.9865 9.4876 68.7412 9.80166C69.9084 10.2938 71.1459 10.547 72.4162 10.547" fill="#F00044"/>
<path d="M54.5194 11.911C55.8553 10.5845 57.6319 9.84854 59.5256 9.83447V8.83604C59.1741 8.78447 58.8131 8.75635 58.4522 8.75635C56.5397 8.75635 54.7444 9.49229 53.3944 10.8329C52.0678 12.1501 51.3084 13.9501 51.3131 15.8204C51.3131 17.7048 52.0584 19.472 53.4038 20.8079C53.6194 21.0188 53.8397 21.2157 54.0741 21.3938C53.0147 20.1329 52.4381 18.5579 52.4334 16.8985C52.4381 15.0282 53.1928 13.2282 54.5194 11.911Z" fill="#08FFF9"/>
<path d="M71.3381 6.76401V5.76089H71.3287C70.0256 5.76089 68.8256 5.32964 67.86 4.59839C68.699 5.70464 69.9272 6.49214 71.3381 6.76401Z" fill="#08FFF9"/>
<path d="M59.385 20.2594C59.8303 20.2828 60.2569 20.2219 60.6506 20.0953C62.01 19.65 62.9897 18.3844 62.9897 16.8937L62.9944 11.3156V1.125H65.6756C65.6053 0.773438 65.5678 0.417188 65.5631 0.046875H61.8694V10.2328L61.8647 15.8109C61.8647 17.3016 60.885 18.5672 59.5256 19.0125C59.1319 19.1438 58.7053 19.2047 58.26 19.1766C57.6928 19.1438 57.1631 18.975 56.7037 18.7031C57.2803 19.5938 58.2647 20.1984 59.385 20.2594Z" fill="#08FFF9"/>
<path d="M59.5256 22.7906C61.0256 22.5703 62.4084 21.8812 63.5006 20.8031C64.8413 19.4766 65.5819 17.7188 65.5913 15.8438L65.5725 7.50469C66.21 7.99688 66.9084 8.40938 67.6631 8.72344C68.8303 9.21563 70.0678 9.46875 71.3381 9.46875V6.76406C69.9272 6.49219 68.6991 5.70469 67.86 4.59844C66.7538 3.76406 65.9569 2.53594 65.6803 1.125H62.9944V11.3109L62.9897 16.8891C62.9897 18.3797 62.01 19.6453 60.6506 20.0906C60.2569 20.2219 59.8303 20.2828 59.385 20.2547C58.26 20.1938 57.2803 19.5891 56.7038 18.7031C55.7241 18.1219 55.0584 17.0672 55.0397 15.8578C55.0116 13.9734 56.5491 12.4359 58.4522 12.4359C58.8272 12.4359 59.1881 12.4969 59.5256 12.6047V9.82969C57.6319 9.84375 55.8553 10.5797 54.5194 11.9062C53.1928 13.2234 52.4334 15.0234 52.4381 16.8891C52.4381 18.5484 53.0147 20.1234 54.0788 21.3844C55.3256 22.3453 56.8491 22.8656 58.4522 22.8656C58.8131 22.8703 59.1741 22.8422 59.5256 22.7906Z" fill="black"/>
<path d="M26.8723 0H7.04397C3.15369 0 0 3.15369 0 7.04397V16.956C0 20.8463 3.15369 24 7.04397 24H26.8723C30.7626 24 33.9163 20.8463 33.9163 16.956V7.04397C33.9163 3.15369 30.7626 0 26.8723 0ZM22.1085 12.4823L12.8341 16.9056C12.587 17.0234 12.3016 16.8432 12.3016 16.5695V7.4464C12.3016 7.16875 12.5945 6.98879 12.8422 7.11431L22.1165 11.8141C22.3923 11.9538 22.3875 12.3492 22.1085 12.4823Z" fill="#F61C0D"/>
</svg>
